:SAMPLES-PER-SECOND 24
:FULLY-SPECIFIED
:DEGREES
84
root  9.85845 38.1307 32.7081 -0.218994 -29.1481 -9.44412
RightUpLeg  -29.1187 -15.9448 -6.02192
RightLeg  91.1118 0.90523 -10.0708
RightFoot  18.315 -0.196615 1.23382
RightToes  -2.08645e-008 3.77894e-005 6.81332e-007
Spine  1.45726 6.3861 12.9181
Spine1  5.20179 6.42707 -0.370349
HEad  -25.0334 39.8882 -21.06
LeftShoulder1  6.69238 -12.3828 -36.0841
LeftArm  -8.1576 11.5381 -21.6557
LeftForeArm  54.859 -77.8973 -57.2016
LeftHand  -0.885418 -1.8224 14.4036
RightShoulder  3.95101 6.82221 32.3755
RightArm  -3.01259 -16.3413 23.2028
RightForeArm  23.4856 47.665 10.581
RightHand  -1.69938 6.47362 -16.8362
LeftUpLeg  -12.6522 3.75498 -3.03168
LeftLeg  30.2861 8.37016 5.60468
LeftFoot  -13.4393 0.221932 7.69688
LeftToes  1.24767e-006 1.47042e-008 1.32732e-009
85
root  9.0403 38.3515 32.9902 -3.56079 -16.6518 -12.9458
RightUpLeg  -36.7848 -14.8287 -8.17693
RightLeg  102.445 2.50936 -8.38944
RightFoot  14.4606 0.110909 -0.0567873
RightToes  -2.08645e-008 3.77894e-005 6.81332e-007
Spine  2.16339 4.43263 9.3891
Spine1  6.19285 3.40806 4.38485
HEad  -23.2885 42.4922 -18.4581
LeftShoulder1  6.62949 -12.3253 -35.8459
LeftArm  -7.30997 4.8085 -23.1753
LeftForeArm  63.8823 -78.8235 -65.098
LeftHand  -0.847356 -2.23401 13.0941
RightShoulder  4.03359 6.85289 33.0607
RightArm  -3.94111 -19.291 21.5526
RightForeArm  15.3639 36.9646 7.50114
RightHand  -1.82052 7.03457 -17.2133
LeftUpLeg  -8.64846 -5.08757 0.868598
LeftLeg  32.1312 5.21567 3.87798
LeftFoot  -14.0161 0.253373 7.20605
LeftToes  1.24767e-006 1.47042e-008 1.32732e-009
86
root  8.12976 38.8465 33.2088 -7.69727 -5.59821 -17.7849
RightUpLeg  -44.0892 -15.0653 -10.8882
RightLeg  110.263 3.44577 -7.43529
RightFoot  8.82602 0.321416 -1.49769
RightToes  -2.08645e-008 3.77894e-005 6.81332e-007
Spine  4.71198 2.68309 6.27562
Spine1  6.47673 0.430188 10.3136
HEad  -22.1813 44.0284 -16.1338
LeftShoulder1  6.58324 -12.2948 -35.6389
LeftArm  -4.88732 -3.61124 -25.3461
LeftForeArm  70.5917 -79.2984 -70.1497
LeftHand  -0.83151 -2.95631 11.784
RightShoulder  4.11205 6.87136 33.7457
RightArm  -3.45934 -23.0246 20.975
RightForeArm  10.1048 27.2676 5.12285
RightHand  -1.78674 6.97208 -16.9853
LeftUpLeg  -5.04773 -10.8324 6.36496
LeftLeg  32.6092 1.05228 1.07561
LeftFoot  -12.7883 0.171161 7.57473
LeftToes  1.24767e-006 1.47042e-008 1.32732e-009
87
root  7.12998 39.611 33.3996 -12.7214 3.17889 -23.3999
RightUpLeg  -50.3489 -15.7571 -13.3896
RightLeg  113.441 3.51056 -6.51494
RightFoot  2.92976 0.12147 -0.80994
RightToes  -2.08645e-008 3.77894e-005 6.81332e-007
Spine  9.09449 1.5321 3.95397
Spine1  5.51148 -1.73036 16.3478
HEad  -20.5796 44.8409 -12.9072
LeftShoulder1  6.47585 -12.201 -35.2122
LeftArm  -0.765155 -12.3484 -28.3788
LeftForeArm  73.4934 -79.4469 -70.5539
LeftHand  -0.786841 -3.39954 10.6309
RightShoulder  4.1919 6.90075 34.396
RightArm  -7.53482 -26.5798 21.4702
RightForeArm  14.1942 17.8102 6.08756
RightHand  -1.62742 6.9044 -15.6001
LeftUpLeg  -2.12773 -13.0412 13.7519
LeftLeg  31.7627 -6.11472 -3.72448
LeftFoot  -9.93116 -0.0289646 7.20073
LeftToes  1.24767e-006 1.47042e-008 1.32732e-009
88
root  6.12819 40.3922 33.6083 -17.8511 10.1385 -29.1541
RightUpLeg  -55.5498 -17.3595 -15.6438
RightLeg  112.661 2.3685 -4.2685
RightFoot  -0.810881 -0.0842378 0.852257
RightToes  -2.08645e-008 3.77894e-005 6.81332e-007
Spine  13.4929 0.342304 2.2298
Spine1  3.89977 -3.66273 21.7077
HEad  -17.5684 46.4614 -8.28368
LeftShoulder1  6.24607 -11.962 -34.3773
LeftArm  3.91487 -19.0503 -31.6061
LeftForeArm  74.6073 -79.4691 -68.7121
LeftHand  -0.670173 -4.12843 8.4503
RightShoulder  4.25793 6.94753 34.8422
RightArm  -16.577 -29.87 22.4305
RightForeArm  27.4034 9.46064 8.02942
RightHand  -1.39405 7.72246 -12.6424
LeftUpLeg  -1.23107 -11.9357 21.5268
LeftLeg  30.6977 -10.4449 -6.29898
LeftFoot  -7.51129 -0.0682219 3.47755
LeftToes  1.24767e-006 1.47042e-008 1.32732e-009
89
root  5.2093 41.0552 33.9306 -22.1243 15.1158 -34.1852
RightUpLeg  -60.4573 -19.9438 -16.6702
RightLeg  108.12 2.48268 -5.80796
RightFoot  -3.04293 -0.219785 2.75017
RightToes  -2.08645e-008 3.77894e-005 6.81332e-007
Spine  15.8854 -0.996068 1.09552
Spine1  3.36528 -5.64143 24.6251
HEad  -14.5711 49.4933 -4.31283
LeftShoulder1  6.01954 -11.7077 -33.5725
LeftArm  7.9289 -23.5947 -33.6821
LeftForeArm  74.8972 -79.4539 -67.4102
LeftHand  -0.537046 -4.99938 6.30025
RightShoulder  4.28164 6.97929 34.9434
RightArm  -17.6326 -33.0344 23.6393
RightForeArm  34.4381 5.42766 7.57948
RightHand  -1.21003 8.73022 -10.2812
LeftUpLeg  -1.72778 -3.44205 27.7186
LeftLeg  27.8185 -6.10839 -3.15577
LeftFoot  -4.8958 0.0747554 -0.762688
LeftToes  1.24767e-006 1.47042e-008 1.32732e-009
90
root  4.51721 41.2924 34.2464 -25.5513 18.6545 -38.4013
RightUpLeg  -65.0355 -23.2743 -16.9862
RightLeg  99.7145 2.59754 -11.0057
RightFoot  -3.56836 -0.272079 3.61078
RightToes  -2.08645e-008 3.77894e-005 6.81332e-007
Spine  16.9307 -2.55309 1.65897
Spine1  3.34789 -7.42225 25.0003
HEad  -12.1628 52.8093 -1.61641
LeftShoulder1  5.91052 -11.5783 -33.1917
LeftArm  11.5555 -26.9206 -34.4482
LeftForeArm  74.9052 -79.4486 -67.1451
LeftHand  -0.491572 -5.27833 5.65687
RightShoulder  4.2392 6.96142 34.6118
RightArm  -16.4231 -36.6508 23.7809
RightForeArm  36.9916 4.49345 7.53771
RightHand  -1.08848 9.22467 -8.99792
LeftUpLeg  -1.84461 8.59332 30.3341
LeftLeg  22.3545 6.58883 3.23296
LeftFoot  -3.47349 -0.0512956 0.948071
LeftToes  1.24767e-006 1.47042e-008 1.32732e-009
